<?xml version="1.0" encoding="utf-8"?>
<!-- Generator: Adobe Illustrator 15.1.0, SVG Export Plug-In . SVG Version: 6.00 Build 0)  -->
<!DOCTYPE svg PUBLIC "-//W3C//DTD SVG 1.1//EN" "http://www.w3.org/Graphics/SVG/1.1/DTD/svg11.dtd">
<svg version="1.1" id="レイヤー_1" xmlns="http://www.w3.org/2000/svg" xmlns:xlink="http://www.w3.org/1999/xlink" x="0px"
	 y="0px" width="1000px" height="140px" viewBox="0 0 1000 140" enable-background="new 0 0 1000 140" xml:space="preserve">
<g>
	<path d="M39.405,111.195H25.498L0,13.294h14.317l18.271,79.63h0.273l21.952-79.63h14.454l21.953,79.63h0.273l18.271-79.63h14.59
		l-25.771,97.901H84.674l-22.362-81.13H62.04L39.405,111.195z"/>
	<path d="M160.348,37.837c22.771,0,33.133,19.226,33.133,37.634c0,18.407-10.362,37.633-33.133,37.633
		c-22.771,0-33.134-19.226-33.134-37.633C127.214,57.063,137.577,37.837,160.348,37.837z M160.348,102.741
		c17.18,0,20.726-17.726,20.726-27.27c0-9.545-3.545-27.271-20.726-27.271c-17.181,0-20.725,17.726-20.725,27.271
		C139.623,85.015,143.167,102.741,160.348,102.741z"/>
	<path d="M236.16,37.837c22.771,0,33.133,19.226,33.133,37.634c0,18.407-10.362,37.633-33.133,37.633
		c-22.771,0-33.134-19.226-33.134-37.633C203.026,57.063,213.389,37.837,236.16,37.837z M236.16,102.741
		c17.18,0,20.726-17.726,20.726-27.27c0-9.545-3.545-27.271-20.726-27.271c-17.181,0-20.725,17.726-20.725,27.271
		C215.435,85.015,218.979,102.741,236.16,102.741z"/>
	<path d="M342.105,111.195h-11.318v-9.817h-0.272c-5.182,9.681-13.362,11.863-20.316,11.863c-24.271,0-31.361-22.771-31.361-39.815
		c0-20.044,10.772-35.588,29.724-35.588c12.954,0,18.408,8.045,21.271,12.136l0.273-0.955V13.294h12V111.195z M310.471,102.877
		c7.637,0,19.499-5.044,19.499-23.998c0-11.59-1.909-30.271-19.226-30.271c-18.544,0-19.499,17.59-19.499,26.725
		C291.245,91.015,297.381,102.877,310.471,102.877z"/>
	<path d="M419.28,88.833c-0.408,3.409-3.681,13.499-12.681,19.499c-3.272,2.181-7.908,4.909-19.362,4.909
		c-20.043,0-31.907-15.135-31.907-35.725c0-22.089,10.636-39.679,34.225-39.679c20.589,0,30.679,16.363,30.679,41.588h-52.086
		c0,14.862,6.954,23.452,20.726,23.452c11.317,0,17.998-8.727,18.408-14.044H419.28z M407.827,69.88
		c-0.682-11.044-5.317-21.271-19.907-21.271c-11.045,0-19.771,10.227-19.771,21.271H407.827z"/>
	<path d="M492.638,111.195h-11.999V67.29c0-12.408-3.545-18.681-15.271-18.681c-6.817,0-18.817,4.363-18.817,23.726v38.86h-11.998
		V39.882h11.317v10.09h0.273c2.59-3.818,9.271-12.136,21.543-12.136c11.044,0,24.952,4.5,24.952,24.816V111.195z"/>
	<path d="M554.132,79.697v6.818c0,11.726,5.591,15.953,14.727,15.953c12.271,0,15.68-7.363,15.68-16.908V13.294h13.227v71.449
		c0,22.907-14.999,29.043-28.225,29.043c-22.771,0-27.815-15.272-27.815-24.407v-9.681H554.132z"/>
	<path d="M676.985,88.833c-0.409,3.409-3.682,13.499-12.681,19.499c-3.272,2.181-7.908,4.909-19.362,4.909
		c-20.044,0-31.906-15.135-31.906-35.725c0-22.089,10.636-39.679,34.225-39.679c20.589,0,30.679,16.363,30.679,41.588h-52.086
		c0,14.862,6.954,23.452,20.726,23.452c11.317,0,17.998-8.727,18.407-14.044H676.985z M665.531,69.88
		c-0.681-11.044-5.316-21.271-19.906-21.271c-11.045,0-19.771,10.227-19.771,21.271H665.531z"/>
	<path d="M715.574,111.195h-12.407l-20.59-71.313h13.091l13.634,56.041h0.273l13.771-56.041h13.362l13.908,56.041h0.273
		l14.453-56.041h11.998l-20.725,71.313h-12.409l-14.453-55.223h-0.272L715.574,111.195z"/>
	<path d="M847.153,88.833c-0.409,3.409-3.682,13.499-12.681,19.499c-3.272,2.181-7.908,4.909-19.362,4.909
		c-20.044,0-31.906-15.135-31.906-35.725c0-22.089,10.635-39.679,34.225-39.679c20.589,0,30.679,16.363,30.679,41.588h-52.086
		c0,14.862,6.954,23.452,20.726,23.452c11.317,0,17.998-8.727,18.407-14.044H847.153z M835.699,69.88
		c-0.682-11.044-5.316-21.271-19.906-21.271c-11.045,0-19.771,10.227-19.771,21.271H835.699z"/>
	<path d="M874.695,111.195h-11.998V13.294h11.998V111.195z"/>
	<path d="M906.327,111.195h-11.999V39.882h11.318v11.863h0.271c4.772-8.318,11.045-13.909,20.045-13.909
		c1.499,0,2.181,0.137,3.135,0.409v12.408h-4.499c-11.182,0-18.271,8.727-18.271,19.09V111.195z"/>
	<path d="M986.774,39.882H1000c-8.317,23.316-16.499,46.633-25.634,69.949c-11.317,28.907-12.544,30.543-27.953,30.543
		c-1.772,0-3.135-0.545-5.044-1.091v-10.908c1.499,0.545,3.954,1.227,7.227,1.227c6.272,0,6.954-1.772,12.681-16.499l-26.453-73.221
		h13.636l18.953,58.086h0.273L986.774,39.882z"/>
</g>
</svg>
